<svg width="533" height="103" viewBox="0 0 533 103" fill="none" xmlns="http://www.w3.org/2000/svg">
<path d="M535.388 102.501C533.721 102.501 532.054 102.501 530.388 102.501C530.388 99.1679 530.387 95.8346 530.387 92.5013C530.397 86.2203 528.805 79.9697 525.781 74.4789C519.411 62.6654 506.325 54.8626 492.888 55.0014C492.363 55.0014 491.838 55.0014 491.313 55.0014C448.171 55.0013 405.029 55.0011 361.887 55.001C254.592 55.0007 147.296 55.0004 40.001 55.0001C23.8744 55.1879 8.24055 45.2001 1.51957 30.5619C-1.1321 24.9369 -2.50618 18.7125 -2.49885 12.5003C-2.49886 8.33352 -2.49888 4.16677 -2.4989 1.11974e-05C-0.832208 6.27582e-06 0.834418 -6.27582e-06 2.5011 -1.11974e-05C2.50112 4.16675 2.50114 8.33351 2.50115 12.5003C2.49548 17.9956 3.7066 23.4733 6.0445 28.4346C11.9786 41.3516 25.7655 50.1677 40.0011 50.0001C147.296 50.0004 254.592 50.0007 361.887 50.001C405.029 50.0011 448.171 50.0013 491.313 50.0014C491.838 50.0014 492.363 50.0014 492.888 50.0014C508.107 49.8445 522.953 58.6899 530.164 72.0722C533.593 78.2947 535.399 85.4003 535.387 92.5013C535.387 95.8346 535.388 99.1679 535.388 102.501Z" fill="url(#paint0_linear_1735_360)"/>
<defs>
<linearGradient id="paint0_linear_1735_360" x1="-0.237073" y1="57.081" x2="-0.236478" y2="1.85321" gradientUnits="userSpaceOnUse">
<stop stop-color="#529742"/>
<stop offset="1" stop-color="#74A057"/>
</linearGradient>
</defs>
</svg>
