<svg width="14" height="19" viewBox="0 0 14 19" fill="none" xmlns="http://www.w3.org/2000/svg">
<path d="M0 18.375C0 17.1033 0.320833 15.925 0.9625 14.84C1.58083 13.79 2.415 12.9558 3.465 12.3375C4.55 11.6958 5.72833 11.375 7 11.375C8.27167 11.375 9.45 11.6958 10.535 12.3375C11.585 12.9558 12.4192 13.79 13.0375 14.84C13.6792 15.925 14 17.1033 14 18.375H12.25C12.25 17.43 12.0108 16.5492 11.5325 15.7325C11.0658 14.9392 10.4358 14.3092 9.6425 13.8425C8.82583 13.3642 7.945 13.125 7 13.125C6.055 13.125 5.17417 13.3642 4.3575 13.8425C3.56417 14.3092 2.93417 14.9392 2.4675 15.7325C1.98917 16.5492 1.75 17.43 1.75 18.375H0ZM7 10.5C6.04333 10.5 5.1625 10.2608 4.3575 9.7825C3.56417 9.31583 2.93417 8.68583 2.4675 7.8925C1.98917 7.0875 1.75 6.20667 1.75 5.25C1.75 4.29333 1.98917 3.4125 2.4675 2.6075C2.93417 1.81417 3.56417 1.18417 4.3575 0.717501C5.1625 0.239166 6.04333 0 7 0C7.95667 0 8.8375 0.239166 9.6425 0.717501C10.4358 1.18417 11.0658 1.81417 11.5325 2.6075C12.0108 3.4125 12.25 4.29333 12.25 5.25C12.25 6.20667 12.0108 7.0875 11.5325 7.8925C11.0658 8.68583 10.4358 9.31583 9.6425 9.7825C8.8375 10.2608 7.95667 10.5 7 10.5ZM7 8.75C7.63 8.75 8.21333 8.5925 8.75 8.2775C9.28667 7.9625 9.7125 7.53667 10.0275 7C10.3425 6.46333 10.5 5.88 10.5 5.25C10.5 4.62 10.3425 4.03667 10.0275 3.5C9.7125 2.96333 9.28667 2.5375 8.75 2.2225C8.21333 1.9075 7.63 1.75 7 1.75C6.37 1.75 5.78667 1.9075 5.25 2.2225C4.71333 2.5375 4.2875 2.96333 3.9725 3.5C3.6575 4.03667 3.5 4.62 3.5 5.25C3.5 5.88 3.6575 6.46333 3.9725 7C4.2875 7.53667 4.71333 7.9625 5.25 8.2775C5.78667 8.5925 6.37 8.75 7 8.75Z" fill="white"/>
</svg>
