<svg width="23" height="21" viewBox="0 0 23 21" fill="none" xmlns="http://www.w3.org/2000/svg">
<path d="M11.1101 7.875C10.6318 7.875 10.1914 7.99167 9.78886 8.225C9.38636 8.45833 9.06844 8.77625 8.83511 9.17875C8.60177 9.58125 8.48511 10.0217 8.48511 10.5C8.48511 10.9783 8.60177 11.4187 8.83511 11.8212C9.06844 12.2238 9.38636 12.5417 9.78886 12.775C10.1914 13.0083 10.6318 13.125 11.1101 13.125C11.5884 13.125 12.0289 13.0083 12.4314 12.775C12.8339 12.5417 13.1518 12.2238 13.3851 11.8212C13.6184 11.4187 13.7351 10.9783 13.7351 10.5C13.7351 10.0217 13.6184 9.58125 13.3851 9.17875C13.1518 8.77625 12.8339 8.45833 12.4314 8.225C12.0289 7.99167 11.5884 7.875 11.1101 7.875ZM11.1101 6.125C11.9034 6.125 12.6355 6.32042 13.3064 6.71125C13.9772 7.10208 14.508 7.63292 14.8989 8.30375C15.2897 8.97458 15.4851 9.70667 15.4851 10.5C15.4851 11.2933 15.2897 12.0254 14.8989 12.6962C14.508 13.3671 13.9772 13.8979 13.3064 14.2888C12.6355 14.6796 11.9034 14.875 11.1101 14.875C10.3168 14.875 9.58469 14.6796 8.91386 14.2888C8.24302 13.8979 7.71219 13.3671 7.32136 12.6962C6.93052 12.0254 6.73511 11.2933 6.73511 10.5C6.73511 9.70667 6.93052 8.97458 7.32136 8.30375C7.71219 7.63292 8.24302 7.10208 8.91386 6.71125C9.58469 6.32042 10.3168 6.125 11.1101 6.125ZM16.7976 5.8975C16.7976 6.20083 16.6897 6.46042 16.4739 6.67625C16.258 6.89208 16.0014 7 15.7039 7C15.4064 7 15.1497 6.89208 14.9339 6.67625C14.718 6.46042 14.6101 6.20375 14.6101 5.90625C14.6101 5.60875 14.718 5.35208 14.9339 5.13625C15.1497 4.92042 15.4064 4.8125 15.7039 4.8125C16.0014 4.8125 16.258 4.92042 16.4739 5.13625C16.6897 5.35208 16.7976 5.60583 16.7976 5.8975ZM11.1101 3.5C10.0368 3.5 9.30761 3.50292 8.92261 3.50875C8.53761 3.51458 8.09427 3.52917 7.59261 3.5525C6.96261 3.57583 6.43761 3.66917 6.01761 3.8325C5.65594 3.9725 5.33802 4.17958 5.06386 4.45375C4.78969 4.72792 4.58261 5.04583 4.44261 5.4075C4.27927 5.8275 4.18594 6.3525 4.16261 6.9825C4.13927 7.46083 4.12469 7.88958 4.11886 8.26875C4.11302 8.64792 4.11011 9.39167 4.11011 10.5C4.11011 11.5733 4.11302 12.3025 4.11886 12.6875C4.12469 13.0725 4.13927 13.5158 4.16261 14.0175C4.18594 14.6475 4.27927 15.1725 4.44261 15.5925C4.58261 15.9542 4.78969 16.2721 5.06386 16.5463C5.33802 16.8204 5.65594 17.0217 6.01761 17.15C6.43761 17.325 6.96261 17.4242 7.59261 17.4475C8.07094 17.4708 8.49969 17.4854 8.87886 17.4913C9.25802 17.4971 10.0018 17.5 11.1101 17.5C12.1834 17.5 12.9126 17.4971 13.2976 17.4913C13.6826 17.4854 14.1259 17.4708 14.6276 17.4475C15.2576 17.4242 15.7826 17.3308 16.2026 17.1675C16.5643 17.0275 16.8822 16.8204 17.1564 16.5463C17.4305 16.2721 17.6318 15.9542 17.7601 15.5925C17.9351 15.1725 18.0343 14.6475 18.0576 14.0175C18.0809 13.5392 18.0955 13.1104 18.1014 12.7312C18.1072 12.3521 18.1101 11.6083 18.1101 10.5C18.1101 9.42667 18.1072 8.6975 18.1014 8.3125C18.0955 7.9275 18.0809 7.48417 18.0576 6.9825C18.0343 6.3525 17.9409 5.8275 17.7776 5.4075C17.6376 5.04583 17.4305 4.72792 17.1564 4.45375C16.8822 4.17958 16.5643 3.9725 16.2026 3.8325C15.7826 3.66917 15.2576 3.57583 14.6276 3.5525C14.1493 3.52917 13.7205 3.51458 13.3414 3.50875C12.9622 3.50292 12.2184 3.5 11.1101 3.5ZM11.1101 1.75C12.2534 1.75 13.0351 1.75583 13.4551 1.7675C13.8051 1.7675 14.2251 1.77917 14.7151 1.8025C15.5318 1.8375 16.2376 1.97167 16.8326 2.205C17.4276 2.43833 17.9468 2.77667 18.3901 3.22C18.8334 3.66333 19.1718 4.1825 19.4051 4.7775C19.6384 5.3725 19.7726 6.07833 19.8076 6.895C19.8309 7.39667 19.8426 7.81667 19.8426 8.155C19.8543 8.59833 19.8601 9.38583 19.8601 10.5175C19.8601 11.6492 19.8543 12.425 19.8426 12.845C19.8426 13.195 19.8309 13.615 19.8076 14.105C19.7726 14.9217 19.6384 15.6275 19.4051 16.2225C19.1718 16.8175 18.8334 17.3367 18.3901 17.78C17.9468 18.2233 17.4276 18.5617 16.8326 18.795C16.2376 19.0283 15.5318 19.1625 14.7151 19.1975C14.2134 19.2208 13.7934 19.2325 13.4551 19.2325C13.0118 19.2442 12.2243 19.25 11.0926 19.25C9.96094 19.25 9.18511 19.2442 8.76511 19.2325C8.41511 19.2325 7.99511 19.2208 7.50511 19.1975C6.68844 19.1625 5.98261 19.0283 5.38761 18.795C4.79261 18.5617 4.27344 18.2233 3.83011 17.78C3.38677 17.3367 3.04844 16.8175 2.81511 16.2225C2.58177 15.6275 2.44761 14.9217 2.41261 14.105C2.38927 13.6033 2.37761 13.1833 2.37761 12.845C2.36594 12.4017 2.36011 11.6142 2.36011 10.4825C2.36011 9.35083 2.36594 8.575 2.37761 8.155C2.37761 7.805 2.38927 7.385 2.41261 6.895C2.44761 6.07833 2.58177 5.3725 2.81511 4.7775C3.04844 4.1825 3.38677 3.66333 3.83011 3.22C4.27344 2.77667 4.79261 2.43833 5.38761 2.205C5.98261 1.97167 6.68844 1.8375 7.50511 1.8025C8.00677 1.77917 8.42677 1.7675 8.76511 1.7675C9.20844 1.75583 9.99011 1.75 11.1101 1.75Z" fill="white"/>
</svg>
