<svg width="23" height="21" viewBox="0 0 23 21" fill="none" xmlns="http://www.w3.org/2000/svg">
<path d="M4.80961 5.28547L1.97461 2.45047L3.19961 1.20797L6.03461 4.04297H19.3696C19.6146 4.04297 19.8217 4.12755 19.9909 4.29672C20.16 4.46589 20.2446 4.67297 20.2446 4.91797C20.2446 4.99964 20.2329 5.0813 20.2096 5.16297L18.1096 12.163C18.0629 12.3496 17.9609 12.5013 17.8034 12.618C17.6459 12.7346 17.4679 12.793 17.2696 12.793H6.55961V14.543H16.1846V16.293H5.68461C5.43961 16.293 5.23253 16.2084 5.06336 16.0392C4.89419 15.8701 4.80961 15.663 4.80961 15.418V5.28547ZM6.55961 5.79297V11.043H16.6221L18.1971 5.79297H6.55961ZM6.12211 19.793C5.76044 19.793 5.45128 19.6646 5.19461 19.408C4.93794 19.1513 4.80961 18.8421 4.80961 18.4805C4.80961 18.1188 4.93794 17.8096 5.19461 17.553C5.45128 17.2963 5.76044 17.168 6.12211 17.168C6.48378 17.168 6.79294 17.2963 7.04961 17.553C7.30628 17.8096 7.43461 18.1188 7.43461 18.4805C7.43461 18.8421 7.30628 19.1513 7.04961 19.408C6.79294 19.6646 6.48378 19.793 6.12211 19.793ZM16.6221 19.793C16.2604 19.793 15.9513 19.6646 15.6946 19.408C15.4379 19.1513 15.3096 18.8421 15.3096 18.4805C15.3096 18.1188 15.4379 17.8096 15.6946 17.553C15.9513 17.2963 16.2604 17.168 16.6221 17.168C16.9838 17.168 17.2929 17.2963 17.5496 17.553C17.8063 17.8096 17.9346 18.1188 17.9346 18.4805C17.9346 18.8421 17.8063 19.1513 17.5496 19.408C17.2929 19.6646 16.9838 19.793 16.6221 19.793Z" fill="white"/>
</svg>
