<svg width="23" height="21" viewBox="0 0 23 21" fill="none" xmlns="http://www.w3.org/2000/svg">
<path d="M4.8101 5.28498L1.9751 2.44998L3.2001 1.20748L6.0351 4.04248H19.3701C19.6151 4.04248 19.8222 4.12706 19.9913 4.29623C20.1605 4.4654 20.2451 4.67248 20.2451 4.91748C20.2451 4.99915 20.2334 5.08081 20.2101 5.16248L18.1101 12.1625C18.0634 12.3491 17.9613 12.5008 17.8038 12.6175C17.6463 12.7341 17.4684 12.7925 17.2701 12.7925H6.5601V14.5425H16.1851V16.2925H5.6851C5.4401 16.2925 5.23301 16.2079 5.06385 16.0387C4.89468 15.8696 4.8101 15.6625 4.8101 15.4175V5.28498ZM6.5601 5.79248V11.0425H16.6226L18.1976 5.79248H6.5601ZM6.1226 19.7925C5.76093 19.7925 5.45176 19.6641 5.1951 19.4075C4.93843 19.1508 4.8101 18.8416 4.8101 18.48C4.8101 18.1183 4.93843 17.8091 5.1951 17.5525C5.45176 17.2958 5.76093 17.1675 6.1226 17.1675C6.48426 17.1675 6.79343 17.2958 7.0501 17.5525C7.30676 17.8091 7.4351 18.1183 7.4351 18.48C7.4351 18.8416 7.30676 19.1508 7.0501 19.4075C6.79343 19.6641 6.48426 19.7925 6.1226 19.7925ZM16.6226 19.7925C16.2609 19.7925 15.9518 19.6641 15.6951 19.4075C15.4384 19.1508 15.3101 18.8416 15.3101 18.48C15.3101 18.1183 15.4384 17.8091 15.6951 17.5525C15.9518 17.2958 16.2609 17.1675 16.6226 17.1675C16.9843 17.1675 17.2934 17.2958 17.5501 17.5525C17.8068 17.8091 17.9351 18.1183 17.9351 18.48C17.9351 18.8416 17.8068 19.1508 17.5501 19.4075C17.2934 19.6641 16.9843 19.7925 16.6226 19.7925Z" fill="white"/>
</svg>
