<svg width="23" height="21" viewBox="0 0 23 21" fill="none" xmlns="http://www.w3.org/2000/svg">
<path d="M11.1094 7.875C10.631 7.875 10.1906 7.99167 9.78813 8.225C9.38562 8.45833 9.06771 8.77625 8.83437 9.17875C8.60104 9.58125 8.48438 10.0217 8.48438 10.5C8.48438 10.9783 8.60104 11.4187 8.83437 11.8212C9.06771 12.2238 9.38562 12.5417 9.78813 12.775C10.1906 13.0083 10.631 13.125 11.1094 13.125C11.5877 13.125 12.0281 13.0083 12.4306 12.775C12.8331 12.5417 13.151 12.2238 13.3844 11.8212C13.6177 11.4187 13.7344 10.9783 13.7344 10.5C13.7344 10.0217 13.6177 9.58125 13.3844 9.17875C13.151 8.77625 12.8331 8.45833 12.4306 8.225C12.0281 7.99167 11.5877 7.875 11.1094 7.875ZM11.1094 6.125C11.9027 6.125 12.6348 6.32042 13.3056 6.71125C13.9765 7.10208 14.5073 7.63292 14.8981 8.30375C15.289 8.97458 15.4844 9.70667 15.4844 10.5C15.4844 11.2933 15.289 12.0254 14.8981 12.6962C14.5073 13.3671 13.9765 13.8979 13.3056 14.2888C12.6348 14.6796 11.9027 14.875 11.1094 14.875C10.316 14.875 9.58396 14.6796 8.91313 14.2888C8.24229 13.8979 7.71146 13.3671 7.32062 12.6962C6.92979 12.0254 6.73438 11.2933 6.73438 10.5C6.73438 9.70667 6.92979 8.97458 7.32062 8.30375C7.71146 7.63292 8.24229 7.10208 8.91313 6.71125C9.58396 6.32042 10.316 6.125 11.1094 6.125ZM16.7969 5.8975C16.7969 6.20083 16.689 6.46042 16.4731 6.67625C16.2573 6.89208 16.0006 7 15.7031 7C15.4056 7 15.149 6.89208 14.9331 6.67625C14.7173 6.46042 14.6094 6.20375 14.6094 5.90625C14.6094 5.60875 14.7173 5.35208 14.9331 5.13625C15.149 4.92042 15.4056 4.8125 15.7031 4.8125C16.0006 4.8125 16.2573 4.92042 16.4731 5.13625C16.689 5.35208 16.7969 5.60583 16.7969 5.8975ZM11.1094 3.5C10.036 3.5 9.30688 3.50292 8.92188 3.50875C8.53688 3.51458 8.09354 3.52917 7.59188 3.5525C6.96187 3.57583 6.43687 3.66917 6.01688 3.8325C5.65521 3.9725 5.33729 4.17958 5.06312 4.45375C4.78896 4.72792 4.58188 5.04583 4.44187 5.4075C4.27854 5.8275 4.18521 6.3525 4.16188 6.9825C4.13854 7.46083 4.12396 7.88958 4.11812 8.26875C4.11229 8.64792 4.10938 9.39167 4.10938 10.5C4.10938 11.5733 4.11229 12.3025 4.11812 12.6875C4.12396 13.0725 4.13854 13.5158 4.16188 14.0175C4.18521 14.6475 4.27854 15.1725 4.44187 15.5925C4.58188 15.9542 4.78896 16.2721 5.06312 16.5463C5.33729 16.8204 5.65521 17.0217 6.01688 17.15C6.43687 17.325 6.96187 17.4242 7.59188 17.4475C8.07021 17.4708 8.49896 17.4854 8.87813 17.4913C9.25729 17.4971 10.001 17.5 11.1094 17.5C12.1827 17.5 12.9119 17.4971 13.2969 17.4913C13.6819 17.4854 14.1252 17.4708 14.6269 17.4475C15.2569 17.4242 15.7819 17.3308 16.2019 17.1675C16.5635 17.0275 16.8815 16.8204 17.1556 16.5463C17.4298 16.2721 17.631 15.9542 17.7594 15.5925C17.9344 15.1725 18.0335 14.6475 18.0569 14.0175C18.0802 13.5392 18.0948 13.1104 18.1006 12.7312C18.1065 12.3521 18.1094 11.6083 18.1094 10.5C18.1094 9.42667 18.1065 8.6975 18.1006 8.3125C18.0948 7.9275 18.0802 7.48417 18.0569 6.9825C18.0335 6.3525 17.9402 5.8275 17.7769 5.4075C17.6369 5.04583 17.4298 4.72792 17.1556 4.45375C16.8815 4.17958 16.5635 3.9725 16.2019 3.8325C15.7819 3.66917 15.2569 3.57583 14.6269 3.5525C14.1485 3.52917 13.7198 3.51458 13.3406 3.50875C12.9615 3.50292 12.2177 3.5 11.1094 3.5ZM11.1094 1.75C12.2527 1.75 13.0344 1.75583 13.4544 1.7675C13.8044 1.7675 14.2244 1.77917 14.7144 1.8025C15.531 1.8375 16.2369 1.97167 16.8319 2.205C17.4269 2.43833 17.946 2.77667 18.3894 3.22C18.8327 3.66333 19.171 4.1825 19.4044 4.7775C19.6377 5.3725 19.7719 6.07833 19.8069 6.895C19.8302 7.39667 19.8419 7.81667 19.8419 8.155C19.8535 8.59833 19.8594 9.38583 19.8594 10.5175C19.8594 11.6492 19.8535 12.425 19.8419 12.845C19.8419 13.195 19.8302 13.615 19.8069 14.105C19.7719 14.9217 19.6377 15.6275 19.4044 16.2225C19.171 16.8175 18.8327 17.3367 18.3894 17.78C17.946 18.2233 17.4269 18.5617 16.8319 18.795C16.2369 19.0283 15.531 19.1625 14.7144 19.1975C14.2127 19.2208 13.7927 19.2325 13.4544 19.2325C13.011 19.2442 12.2235 19.25 11.0919 19.25C9.96021 19.25 9.18437 19.2442 8.76438 19.2325C8.41437 19.2325 7.99438 19.2208 7.50437 19.1975C6.68771 19.1625 5.98187 19.0283 5.38687 18.795C4.79188 18.5617 4.27271 18.2233 3.82938 17.78C3.38604 17.3367 3.04771 16.8175 2.81438 16.2225C2.58104 15.6275 2.44687 14.9217 2.41188 14.105C2.38854 13.6033 2.37688 13.1833 2.37688 12.845C2.36521 12.4017 2.35938 11.6142 2.35938 10.4825C2.35938 9.35083 2.36521 8.575 2.37688 8.155C2.37688 7.805 2.38854 7.385 2.41188 6.895C2.44687 6.07833 2.58104 5.3725 2.81438 4.7775C3.04771 4.1825 3.38604 3.66333 3.82938 3.22C4.27271 2.77667 4.79188 2.43833 5.38687 2.205C5.98187 1.97167 6.68771 1.8375 7.50437 1.8025C8.00604 1.77917 8.42604 1.7675 8.76438 1.7675C9.20771 1.75583 9.98938 1.75 11.1094 1.75Z" fill="white"/>
</svg>
