<svg width="23" height="21" viewBox="0 0 23 21" fill="none" xmlns="http://www.w3.org/2000/svg">
<path d="M12.6499 11.8125H14.8374L15.7124 8.3125H12.6499V6.5625C12.6499 6.16583 12.6674 5.88 12.7024 5.705C12.7724 5.425 12.9241 5.20917 13.1574 5.0575C13.4374 4.89417 13.8516 4.8125 14.3999 4.8125H15.7124V1.8725C15.5141 1.84917 15.1991 1.82583 14.7674 1.8025C14.2307 1.7675 13.7116 1.75 13.2099 1.75C12.4049 1.75 11.6962 1.91042 11.0837 2.23125C10.4712 2.55208 10.0016 3.01 9.6749 3.605C9.3249 4.24667 9.1499 4.99917 9.1499 5.8625V8.3125H6.5249V11.8125H9.1499V19.25H12.6499V11.8125Z" fill="white"/>
</svg>
