<svg width="510" height="501" viewBox="0 0 510 501" fill="none" xmlns="http://www.w3.org/2000/svg">
<path d="M303.5 439.99L303.5 500.5" stroke="#55A143" stroke-width="5"/>
<line x1="261" y1="440.5" x2="457.923" y2="440.5" stroke="#55A143" stroke-width="5"/>
<path d="M456.213 320L456.5 440" stroke="#55A143" stroke-width="5"/>
<line x1="396.346" y1="256.305" x2="396.346" y2="380.479" stroke="#55A143" stroke-width="5"/>
<line x1="200.503" y1="377.979" x2="393.846" y2="377.979" stroke="#55A143" stroke-width="5"/>
<line x1="281.773" y1="325.709" x2="281.5" y2="380.013" stroke="#55A143" stroke-width="5"/>
<line x1="279.273" y1="328.196" x2="68.028" y2="328.196" stroke="#55A143" stroke-width="5"/>
<line x1="70.5281" y1="194.218" x2="70.5281" y2="329.348" stroke="#55A143" stroke-width="5"/>
<line x1="2.9979" y1="194.63" x2="157.536" y2="194.5" stroke="#55A143" stroke-width="5"/>
<line x1="0.0133646" y1="377.5" x2="89.5238" y2="377.979" stroke="#55A143" stroke-width="5"/>
<line x1="152.878" y1="325.696" x2="152.878" y2="442.566" stroke="#55A143" stroke-width="5"/>
<line x1="60.8672" y1="440.065" x2="207.664" y2="440.065" stroke="#55A143" stroke-width="5"/>
<path d="M440.392 273.066L510 273" stroke="#55A143" stroke-width="5"/>
<line x1="340.943" y1="325.684" x2="341.497" y2="197.86" stroke="#55A143" stroke-width="5"/>
<path d="M338.997 195.5L450 195.5" stroke="#55A143" stroke-width="5"/>
<line x1="451.5" y1="48" x2="451.5" y2="223.304" stroke="#55A143" stroke-width="5"/>
<line x1="396.5" y1="0.00283188" x2="396.346" y2="135.786" stroke="#55A143" stroke-width="5"/>
<line x1="3.01427" y1="63.5" x2="71.6226" y2="63.8916" stroke="#55A143" stroke-width="5"/>
<line x1="195.5" y1="-0.012907" x2="195.843" y2="66.3789" stroke="#55A143" stroke-width="5"/>
<line x1="125.315" y1="63.8916" x2="264.951" y2="63.8916" stroke="#55A143" stroke-width="5"/>
<line x1="127.815" y1="66.3916" x2="127.815" y2="128.479" stroke="#55A143" stroke-width="5"/>
<line x1="71.6084" y1="129.631" x2="329.399" y2="129.631" stroke="#55A143" stroke-width="5"/>
<line x1="331.899" y1="55.4355" x2="331.899" y2="132.131" stroke="#55A143" stroke-width="5"/>
<line x1="220.906" y1="132.131" x2="220.906" y2="219.783" stroke="#55A143" stroke-width="5"/>
<line x1="282.262" y1="132.15" x2="281.284" y2="274.581" stroke="#55A143" stroke-width="5"/>
<line x1="135" y1="272.5" x2="281.797" y2="272.5" stroke="#55A143" stroke-width="5"/>
<line x1="280.006" y1="231.5" x2="343.728" y2="231.659" stroke="#55A143" stroke-width="5"/>
</svg>
