<svg width="23" height="21" viewBox="0 0 23 21" fill="none" xmlns="http://www.w3.org/2000/svg">
<path d="M11.1099 7.875C10.6315 7.875 10.1911 7.99167 9.78861 8.225C9.38611 8.45833 9.0682 8.77625 8.83486 9.17875C8.60153 9.58125 8.48486 10.0217 8.48486 10.5C8.48486 10.9783 8.60153 11.4187 8.83486 11.8212C9.0682 12.2238 9.38611 12.5417 9.78861 12.775C10.1911 13.0083 10.6315 13.125 11.1099 13.125C11.5882 13.125 12.0286 13.0083 12.4311 12.775C12.8336 12.5417 13.1515 12.2238 13.3849 11.8212C13.6182 11.4187 13.7349 10.9783 13.7349 10.5C13.7349 10.0217 13.6182 9.58125 13.3849 9.17875C13.1515 8.77625 12.8336 8.45833 12.4311 8.225C12.0286 7.99167 11.5882 7.875 11.1099 7.875ZM11.1099 6.125C11.9032 6.125 12.6353 6.32042 13.3061 6.71125C13.9769 7.10208 14.5078 7.63292 14.8986 8.30375C15.2894 8.97458 15.4849 9.70667 15.4849 10.5C15.4849 11.2933 15.2894 12.0254 14.8986 12.6962C14.5078 13.3671 13.9769 13.8979 13.3061 14.2888C12.6353 14.6796 11.9032 14.875 11.1099 14.875C10.3165 14.875 9.58445 14.6796 8.91361 14.2888C8.24278 13.8979 7.71195 13.3671 7.32111 12.6962C6.93028 12.0254 6.73486 11.2933 6.73486 10.5C6.73486 9.70667 6.93028 8.97458 7.32111 8.30375C7.71195 7.63292 8.24278 7.10208 8.91361 6.71125C9.58445 6.32042 10.3165 6.125 11.1099 6.125ZM16.7974 5.8975C16.7974 6.20083 16.6894 6.46042 16.4736 6.67625C16.2578 6.89208 16.0011 7 15.7036 7C15.4061 7 15.1494 6.89208 14.9336 6.67625C14.7178 6.46042 14.6099 6.20375 14.6099 5.90625C14.6099 5.60875 14.7178 5.35208 14.9336 5.13625C15.1494 4.92042 15.4061 4.8125 15.7036 4.8125C16.0011 4.8125 16.2578 4.92042 16.4736 5.13625C16.6894 5.35208 16.7974 5.60583 16.7974 5.8975ZM11.1099 3.5C10.0365 3.5 9.30736 3.50292 8.92236 3.50875C8.53736 3.51458 8.09403 3.52917 7.59236 3.5525C6.96236 3.57583 6.43736 3.66917 6.01736 3.8325C5.6557 3.9725 5.33778 4.17958 5.06361 4.45375C4.78945 4.72792 4.58236 5.04583 4.44236 5.4075C4.27903 5.8275 4.1857 6.3525 4.16236 6.9825C4.13903 7.46083 4.12445 7.88958 4.11861 8.26875C4.11278 8.64792 4.10986 9.39167 4.10986 10.5C4.10986 11.5733 4.11278 12.3025 4.11861 12.6875C4.12445 13.0725 4.13903 13.5158 4.16236 14.0175C4.1857 14.6475 4.27903 15.1725 4.44236 15.5925C4.58236 15.9542 4.78945 16.2721 5.06361 16.5463C5.33778 16.8204 5.6557 17.0217 6.01736 17.15C6.43736 17.325 6.96236 17.4242 7.59236 17.4475C8.0707 17.4708 8.49945 17.4854 8.87861 17.4913C9.25778 17.4971 10.0015 17.5 11.1099 17.5C12.1832 17.5 12.9124 17.4971 13.2974 17.4913C13.6824 17.4854 14.1257 17.4708 14.6274 17.4475C15.2574 17.4242 15.7824 17.3308 16.2024 17.1675C16.564 17.0275 16.8819 16.8204 17.1561 16.5463C17.4303 16.2721 17.6315 15.9542 17.7599 15.5925C17.9349 15.1725 18.034 14.6475 18.0574 14.0175C18.0807 13.5392 18.0953 13.1104 18.1011 12.7312C18.1069 12.3521 18.1099 11.6083 18.1099 10.5C18.1099 9.42667 18.1069 8.6975 18.1011 8.3125C18.0953 7.9275 18.0807 7.48417 18.0574 6.9825C18.034 6.3525 17.9407 5.8275 17.7774 5.4075C17.6374 5.04583 17.4303 4.72792 17.1561 4.45375C16.8819 4.17958 16.564 3.9725 16.2024 3.8325C15.7824 3.66917 15.2574 3.57583 14.6274 3.5525C14.149 3.52917 13.7203 3.51458 13.3411 3.50875C12.9619 3.50292 12.2182 3.5 11.1099 3.5ZM11.1099 1.75C12.2532 1.75 13.0349 1.75583 13.4549 1.7675C13.8049 1.7675 14.2249 1.77917 14.7149 1.8025C15.5315 1.8375 16.2374 1.97167 16.8324 2.205C17.4274 2.43833 17.9465 2.77667 18.3899 3.22C18.8332 3.66333 19.1715 4.1825 19.4049 4.7775C19.6382 5.3725 19.7724 6.07833 19.8074 6.895C19.8307 7.39667 19.8424 7.81667 19.8424 8.155C19.854 8.59833 19.8599 9.38583 19.8599 10.5175C19.8599 11.6492 19.854 12.425 19.8424 12.845C19.8424 13.195 19.8307 13.615 19.8074 14.105C19.7724 14.9217 19.6382 15.6275 19.4049 16.2225C19.1715 16.8175 18.8332 17.3367 18.3899 17.78C17.9465 18.2233 17.4274 18.5617 16.8324 18.795C16.2374 19.0283 15.5315 19.1625 14.7149 19.1975C14.2132 19.2208 13.7932 19.2325 13.4549 19.2325C13.0115 19.2442 12.224 19.25 11.0924 19.25C9.9607 19.25 9.18486 19.2442 8.76486 19.2325C8.41486 19.2325 7.99486 19.2208 7.50486 19.1975C6.6882 19.1625 5.98236 19.0283 5.38736 18.795C4.79236 18.5617 4.2732 18.2233 3.82986 17.78C3.38653 17.3367 3.0482 16.8175 2.81486 16.2225C2.58153 15.6275 2.44736 14.9217 2.41236 14.105C2.38903 13.6033 2.37736 13.1833 2.37736 12.845C2.3657 12.4017 2.35986 11.6142 2.35986 10.4825C2.35986 9.35083 2.3657 8.575 2.37736 8.155C2.37736 7.805 2.38903 7.385 2.41236 6.895C2.44736 6.07833 2.58153 5.3725 2.81486 4.7775C3.0482 4.1825 3.38653 3.66333 3.82986 3.22C4.2732 2.77667 4.79236 2.43833 5.38736 2.205C5.98236 1.97167 6.6882 1.8375 7.50486 1.8025C8.00653 1.77917 8.42653 1.7675 8.76486 1.7675C9.2082 1.75583 9.98986 1.75 11.1099 1.75Z" fill="white"/>
</svg>
