<svg width="19" height="19" viewBox="0 0 19 19" fill="none" xmlns="http://www.w3.org/2000/svg">
<path d="M2.835 4.0775L0 1.2425L1.225 0L4.06 2.835H17.395C17.64 2.835 17.8471 2.91958 18.0163 3.08875C18.1854 3.25792 18.27 3.465 18.27 3.71C18.27 3.79167 18.2583 3.87333 18.235 3.955L16.135 10.955C16.0883 11.1417 15.9862 11.2933 15.8287 11.41C15.6712 11.5267 15.4933 11.585 15.295 11.585H4.585V13.335H14.21V15.085H3.71C3.465 15.085 3.25792 15.0004 3.08875 14.8313C2.91958 14.6621 2.835 14.455 2.835 14.21V4.0775ZM4.585 4.585V9.835H14.6475L16.2225 4.585H4.585ZM4.1475 18.585C3.78583 18.585 3.47667 18.4567 3.22 18.2C2.96333 17.9433 2.835 17.6342 2.835 17.2725C2.835 16.9108 2.96333 16.6017 3.22 16.345C3.47667 16.0883 3.78583 15.96 4.1475 15.96C4.50917 15.96 4.81833 16.0883 5.075 16.345C5.33167 16.6017 5.46 16.9108 5.46 17.2725C5.46 17.6342 5.33167 17.9433 5.075 18.2C4.81833 18.4567 4.50917 18.585 4.1475 18.585ZM14.6475 18.585C14.2858 18.585 13.9767 18.4567 13.72 18.2C13.4633 17.9433 13.335 17.6342 13.335 17.2725C13.335 16.9108 13.4633 16.6017 13.72 16.345C13.9767 16.0883 14.2858 15.96 14.6475 15.96C15.0092 15.96 15.3183 16.0883 15.575 16.345C15.8317 16.6017 15.96 16.9108 15.96 17.2725C15.96 17.6342 15.8317 17.9433 15.575 18.2C15.3183 18.4567 15.0092 18.585 14.6475 18.585Z" fill="white"/>
</svg>
